<?xml version="1.0" encoding="utf-8"?>
<!-- Generator: Adobe Illustrator 25.2.1, SVG Export Plug-In . SVG Version: 6.00 Build 0)  -->
<svg version="1.1" id="Layer_1" xmlns="http://www.w3.org/2000/svg" xmlns:xlink="http://www.w3.org/1999/xlink" x="0px" y="0px"
	 viewBox="0 0 1920 3192" style="enable-background:new 0 0 1920 3192;" xml:space="preserve">
<style type="text/css">
	.st0{fill:none;stroke:#000000;stroke-miterlimit:10;}
	.st1{fill:#500D9C;}
	.st2{fill:#F1EFF4;}
	.st3{fill:#FAB82F;}
	.st4{fill:#FEF7EE;}
	.st5{fill:#520C9F;}
	.st6{fill:none;}
	.st7{font-family:'SegoeUI-BoldItalic';}
	.st8{font-size:122px;}
</style>
<path class="st0" d="M1121.2,2557.2c-373.7,0-746.9,0-1120,0c0-640,0-1280,0-1920c640,0,1280,0,1920,0c0,640,0,1280,0,1920
	C1654.7,2557.2,1388.3,2557.2,1121.2,2557.2 M1125.9,1706.9c-1.4,0.1-2.8,0-4.2,0.2c-8.3,1-16.5,2.3-24.8,3.2
	c-13.7,1.4-27.3,2.7-41,3.7c-11.1,0.9-22.3,1.5-33.4,2c-13,0.6-26,1.2-38.9,1.2c-27.6,0-55.2-0.4-82.9-0.7
	c-5.6-0.1-11.2-0.1-16.8-0.5c-13.5-0.9-27-2.1-40.5-3.1c-8-0.6-15.9-0.8-23.9-1.5c-11.1-1-22.1-2.2-33.2-3.4
	c-13.2-1.4-26.5-3-39.7-4.5c-7.3-0.8-14.7-1.7-22-2.5c0.3,1,0.8,1.6,1.5,1.7c5.2,1.3,10.4,2.6,15.7,3.6c16.2,3.1,32.5,6.2,48.7,9.2
	c4.9,0.9,9.9,1.5,14.8,2.2c12,1.9,23.9,4.2,35.9,5.7c16,2,32,3.6,48.1,5.1c17.2,1.6,34.5,3.1,51.8,4.3c11,0.8,22,1.2,32.9,1.2
	c27.8-0.1,55.6-0.4,83.5-0.8c5-0.1,10-0.4,15-0.6c6.4-0.3,12.7-0.5,18.7,0c-4.3,6.1-5.5,13.1-5,20.6c-3.3,0.5-6.1,1.2-8.8,1.2
	c-33.6-0.2-67.3-0.3-100.9-0.9c-18-0.3-35.9-1.6-53.9-2.4c-3-0.1-6-0.2-9-0.5c-10.7-1-21.4-2.1-32.1-3.1c-10.9-1-21.9-1.6-32.8-2.9
	c-13.3-1.6-26.5-3.6-39.7-5.6c-21.7-3.3-43.5-6.3-65-10.3c-20.8-3.9-41.5-8.4-62-13.5c-18.8-4.6-37.4-10.1-55.9-15.6
	c-14.9-4.5-29.8-9.1-44.4-14.7c-16.4-6.3-32.6-13.3-48.5-20.6c-23.1-10.6-45.1-23.3-65-39.3c-13-10.5-24.8-22.1-33.2-36.7
	c-13.2-23-13.3-45.8,1.2-68.5c6.1-9.6,13.9-17.5,22.5-24.7c16.8-13.9,35.7-24.2,55.5-33.1c24.1-10.8,49.1-19.3,74.7-25.9
	c20.3-5.3,40.9-9.2,61.3-13.7c1.7-0.4,3.7-0.5,3.7-3.5c-2,0.1-4,0-5.9,0.3c-9.2,1.8-18.3,3.9-27.6,5.5c-26.2,4.6-52,10.9-77.4,18.9
	c-15.8,5-31.4,10.6-46.8,16.5c-21,8.1-40.9,18.3-59.2,31.4c-12.2,8.8-23.6,18.5-32.4,30.9c-7.6,10.6-12.8,22.3-14.3,35.2
	c-1.8,15.5,2.8,29.8,10.4,43c8.6,14.9,20.3,27.2,33.6,37.9c12.3,9.9,25.5,18.6,39.1,26.6c21.6,12.7,44.3,23.1,67.5,32.4
	c15.4,6.2,31,12,46.8,16.8c25.8,7.8,51.8,15,77.9,21.7c16.8,4.3,34,7.3,51,10.8c11.3,2.3,22.7,4.5,34.1,6.4
	c12.4,2.1,24.8,3.9,37.3,5.6c11.5,1.6,23,2.9,34.4,4.2c11.9,1.3,23.8,2.5,35.7,3.7c5.2,0.5,10.4,0.8,15.5,1.2
	c11.3,1,22.6,2.4,34,3.1c11,0.7,22,0.9,33,1.3c5.2,0.2,10.4,0.1,15.6,0.4c13.4,0.6,26.7,1.6,40.1,2c12.8,0.3,25.7,0.3,38.5,0
	c13.2-0.4,26.3-1.4,39.5-2c6.4-0.3,12.8-0.1,19.2-0.5c2.6-0.2,4.4,0.6,6.5,2.1c5.5,3.9,11.3,7.5,17.1,10.9c3.8,2.2,7.9,3.9,13.1,6.4
	c-3.4,0.5-5.3,1-7.3,1.1c-9.8,0.5-19.6,0.9-29.4,1.3c-5.4,0.2-10.8,0.1-16.2,0.3c-13.8,0.6-27.5,1.7-41.3,2
	c-24.6,0.6-49.2-0.7-73.8-2c-14.4-0.8-28.8-1.1-43.2-1.6c-1.6-0.1-3.2,0-4.8-0.1c-12.5-1.1-25-2.1-37.5-3.3
	c-10.3-1-20.6-2.3-30.9-3.5c-15.5-1.8-31-3.2-46.4-5.4c-16-2.2-31.9-5.1-47.8-7.8c-11.2-1.9-22.5-3.6-33.6-5.8
	c-13.9-2.7-27.8-5.5-41.7-8.5c-10.2-2.2-20.2-4.7-30.4-7c-3.1-0.7-6.3-1.3-9.4-1.9c-0.1,0.5-0.2,1-0.4,1.4c7.1,2.4,14.2,5,21.4,7.1
	c12.8,3.9,25.7,7.6,38.6,11.2c12.7,3.5,25.3,7.3,38.1,10.2c16.7,3.8,33.6,7.1,50.4,10.5c11.9,2.4,23.9,4.8,35.9,6.7
	c15.2,2.4,30.4,4.4,45.7,6.4c17.6,2.3,35.2,4.7,52.8,6.6c12.9,1.3,25.9,1.8,38.9,2.7c9,0.6,17.9,1.6,26.8,2.2c9,0.6,18,0.9,27,1.2
	c15,0.5,30,1.2,45,1.2c22.8,0,45.7-0.4,68.5-0.8c20.8-0.4,41.6-0.9,62.4-1.5c5.8-0.2,11.6-0.7,17.3-1.3c14.9-1.6,29.9-2.4,44.9-1.9
	c4.6,0.1,9.2,0.8,13.7,0.7c5.8,0,11.6-0.5,17.3-0.9c11.9-0.8,23.9-1.4,35.8-2.8c22-2.6,43.7-7.2,64.9-14.1
	c18.1-5.9,35.6-13.2,51.7-23.5c8.6-5.5,16.5-12.1,22.4-20.6c9.6-13.6,8.3-28.6-3.9-40.1c-3-2.9-6.5-5.3-10-7.6
	c-13.6-8.9-29.1-13.1-44.7-16.7c-9.9-2.3-20-4.1-30-5.5c-12.6-1.7-25.4-3.5-38.1-3.8c-25-0.7-50.1-1.6-75.1,0.8
	c-13.7,1.3-27.4,2.5-41,4.6c-12,1.8-23.8,4.8-35.8,7.2c-13.6,2.8-26.6,7.1-39.4,12.4C1134,1703.4,1130.5,1705.3,1125.9,1706.9
	 M976.3,1453.7c-8.2,33.1-16.4,66.1-24.6,99.2c-9.6,38.7-19.2,77.4-28.8,116.1c-0.6,2.5-1.1,5.1-1.2,7.7c-0.1,4.3,1.8,6.2,6.1,6.2
	c3.8,0,7.6-0.3,11.4-0.3c58.9,0,117.8,0,176.8-0.1c4.6,0,9.1-0.6,13.7-1c5.1-0.4,10.3-0.8,15.4-1.4c4.1-0.5,8.2-1.1,12.3-1.8
	c8.6-1.4,16.8-4.2,25.1-6.7c12.8-3.8,24.3-10,34.1-18.7c17.3-15.2,26.8-34.6,27.6-57.9c0.1-1.6,0-3.2,0.5-4.7c2.3-7,2.5-14-0.1-21
	c-0.4-1.1-0.3-2.3-0.3-3.5c-0.1-11.5-4.8-21.3-12.7-29.2c-6.1-6.2-12.1-12.8-20.3-16.4c-0.4-0.2-0.6-0.9-0.6-0.9
	c7.3-4.7,14.6-9,21.5-13.9c14.2-10.1,23.9-23.6,29.1-40.3c1.4-4.5,1.3-9.4,2.4-14c2.4-10.5,1.5-21-0.7-31.3
	c-2.7-12.7-10.3-22.3-20.7-30.2c-11.7-9-24.6-12.9-39.2-12.9c-63.9,0.1-127.9,0-191.8,0c-2.6,0-5.2-0.3-7.7-0.7
	c-5.6-0.7-8.3,0.9-9.6,6.3C988,1405.8,982.3,1429.3,976.3,1453.7 M674.7,1468.4c-1.7,7-3.4,13.9-5.1,20.9
	c-13.3,54.4-26.7,108.8-39.9,163.2c-1.7,7.1-3.5,14.4-4.2,21.6c-0.7,7,1.2,8.3,8.3,8.3c85.6,0,171.2,0,256.8,0c6.4,0,7.5-0.8,9-7
	c5.5-22.4,11-44.9,16.4-67.3c0.5-2.3,0.7-4.8,0.5-7.1c-0.3-4.1-2.5-5.9-6.7-6c-1.2,0-2.4,0-3.6,0c-50.7,0-101.4,0-152.1,0
	c-2.1,0-4.2,0-6.9,0c3.8-15.1,7.3-29.4,10.9-43.7c12.4-50.1,24.9-100.2,37.3-150.3c1.4-5.6,2.9-11.2,3.6-16.9
	c0.7-5.6-1.2-7.3-6.7-7.3c-29.7,0-59.3,0-89,0c-5,0-6.6,1.5-7.8,6.4C688.6,1411.3,681.7,1439.3,674.7,1468.4 M453.4,1588.5
	c4.4,9.4,10.9,17.1,18.4,24.1c10.3,9.5,22.1,17.1,34,24.4c5.1,3.1,10.6,5.7,16.9,9c-0.7-1.7-0.8-2.5-1.2-2.7
	c-10.9-5.9-20.8-13.3-30.1-21.5c-9.2-8.2-16.5-17.6-21.4-29.1c-3.3-7.7-4.2-15.7-4.5-23.9c-0.7-15.6,3.9-29.5,13.3-41.9
	c11.8-15.6,27.1-26.8,43.7-36.7c20.9-12.3,43.2-21.4,66.2-29c13.8-4.5,27.8-8.4,41.9-12.2c4.6-1.2,6.6-4.1,8.3-8.5
	c-2,0.2-3.4,0.2-4.7,0.5c-8.1,2-16.2,3.9-24.3,6c-8.3,2.1-16.7,4-24.8,6.6c-15,4.7-29.9,9.5-44.5,15.5
	c-22.7,9.2-44.5,19.8-63.4,35.7c-14,11.7-25.4,25.3-29.3,43.9C445,1562.3,447.1,1575.2,453.4,1588.5z"/>
<path class="st1" d="M1127,1707c3.6-1.7,7.1-3.6,10.8-5.1c12.8-5.3,25.8-9.6,39.4-12.4c11.9-2.4,23.8-5.4,35.8-7.2
	c13.6-2.1,27.3-3.3,41-4.6c25-2.3,50-1.4,75.1-0.8c12.7,0.3,25.4,2.1,38.1,3.8c10.1,1.3,20.1,3.2,30,5.5c15.6,3.6,31,7.9,44.7,16.7
	c3.5,2.3,7,4.7,10,7.6c12.1,11.5,13.5,26.4,3.9,40.1c-6,8.5-13.8,15-22.4,20.6c-16.1,10.3-33.5,17.6-51.7,23.5
	c-21.2,6.9-42.8,11.5-64.9,14.1c-11.9,1.4-23.9,1.9-35.8,2.8c-5.8,0.4-11.6,0.8-17.3,0.9c-4.6,0-9.2-0.6-13.7-0.7
	c-15-0.5-30,0.3-44.9,1.9c-5.8,0.6-11.5,1.1-17.3,1.3c-20.8,0.6-41.6,1.1-62.4,1.5c-22.8,0.4-45.6,0.8-68.5,0.8c-15,0-30-0.7-45-1.2
	c-9-0.3-18-0.6-27-1.2c-9-0.6-17.9-1.5-26.8-2.2c-13-0.9-26-1.3-38.9-2.7c-17.6-1.8-35.2-4.3-52.8-6.6c-15.2-2-30.5-4-45.7-6.4
	c-12-1.9-24-4.3-35.9-6.7c-16.8-3.4-33.7-6.6-50.4-10.5c-12.8-2.9-25.5-6.7-38.1-10.2c-12.9-3.6-25.8-7.3-38.6-11.2
	c-7.2-2.2-14.3-4.8-21.4-7.1c0.1-0.5,0.2-1,0.4-1.4c3.1,0.6,6.3,1.2,9.4,1.9c10.1,2.3,20.2,4.8,30.4,7c13.9,3,27.7,5.9,41.7,8.5
	c11.2,2.1,22.4,3.9,33.6,5.8c15.9,2.6,31.8,5.5,47.8,7.8c15.4,2.2,30.9,3.6,46.4,5.4c10.3,1.2,20.6,2.5,30.9,3.5
	c12.5,1.2,25,2.2,37.5,3.3c1.6,0.1,3.2,0.1,4.8,0.1c14.4,0.5,28.8,0.8,43.2,1.6c24.6,1.3,49.2,2.6,73.8,2c13.8-0.3,27.5-1.4,41.3-2
	c5.4-0.2,10.8-0.1,16.2-0.3c9.8-0.4,19.6-0.8,29.4-1.3c2-0.1,3.9-0.6,7.3-1.1c-5.2-2.5-9.3-4.1-13.1-6.4c-5.9-3.4-11.6-7-17.1-10.9
	c-2.1-1.5-3.8-2.3-6.5-2.1c-6.4,0.4-12.8,0.2-19.2,0.5c-13.2,0.6-26.3,1.6-39.5,2c-12.8,0.4-25.7,0.4-38.5,0
	c-13.4-0.3-26.7-1.3-40.1-2c-5.2-0.2-10.4-0.2-15.6-0.4c-11-0.4-22-0.6-33-1.3c-11.3-0.8-22.6-2.1-34-3.1
	c-5.2-0.5-10.4-0.7-15.5-1.2c-11.9-1.2-23.8-2.4-35.7-3.7c-11.5-1.3-23-2.7-34.4-4.2c-12.5-1.7-24.9-3.5-37.3-5.6
	c-11.4-1.9-22.8-4.1-34.1-6.4c-17-3.4-34.2-6.5-51-10.8c-26.1-6.7-52.1-13.9-77.9-21.7c-15.9-4.8-31.5-10.6-46.8-16.8
	c-23.2-9.4-45.9-19.7-67.5-32.4c-13.7-8-26.8-16.7-39.1-26.6c-13.4-10.7-25-23.1-33.6-37.9c-7.7-13.2-12.2-27.5-10.4-43
	c1.5-12.9,6.7-24.6,14.3-35.2c8.9-12.3,20.2-22.1,32.4-30.9c18.3-13.1,38.2-23.3,59.2-31.4c15.4-6,31.1-11.5,46.8-16.5
	c25.3-8,51.2-14.3,77.4-18.9c9.2-1.6,18.4-3.7,27.6-5.5c1.9-0.4,3.9-0.2,5.9-0.3c-0.1,3-2,3.1-3.7,3.5c-20.5,4.5-41.1,8.4-61.3,13.7
	c-25.5,6.6-50.6,15.1-74.7,25.9c-19.8,8.9-38.7,19.1-55.5,33.1c-8.6,7.2-16.4,15.1-22.5,24.7c-14.5,22.7-14.5,45.4-1.2,68.5
	c8.4,14.6,20.2,26.2,33.2,36.7c19.9,16.1,41.9,28.7,65,39.3c16,7.4,32.1,14.3,48.5,20.6c14.5,5.6,29.5,10.2,44.4,14.7
	c18.5,5.6,37.1,11,55.9,15.6c20.5,5.1,41.2,9.6,62,13.5c21.6,4,43.3,7,65,10.3c13.2,2,26.4,4,39.7,5.6c10.9,1.3,21.9,1.9,32.8,2.9
	c10.7,1,21.4,2.1,32.1,3.1c3,0.3,6,0.3,9,0.5c18,0.8,35.9,2.1,53.9,2.4c33.6,0.6,67.3,0.7,100.9,0.9c2.7,0,5.5-0.7,8.8-1.2
	c-0.5-7.5,0.7-14.5,5.5-21.2c1.9-1.7,3.4-2.7,4.6-3.9c5.7-6,12.3-10.7,19.4-14.7C1119.4,1711.3,1123.2,1709.2,1127,1707
	 M1114,1728.3c0,0,0-0.1-0.9-0.3c-5.3,3.4-9.8,7.6-13.1,13c-3.3,5.5-3.8,11.2,0.3,16.3c3.4,4.3,7.5,8.4,11.9,11.7
	c7.7,5.8,16.7,9.4,25.8,12.6c26.6,9.6,54.2,14.2,82.1,16.3c17.5,1.3,35.2,1.4,52.8,1.4c24.1,0,47.9-2.7,71.5-7.3
	c24.2-4.8,47.8-11.8,69.9-23.1c10.7-5.5,20.9-11.9,29.1-20.9c10.9-12,9.9-23-2.9-32.7c-0.2-0.1-0.3-0.2-0.5-0.4
	c-8-5.9-17-9.7-26.4-12.8c-0.9-0.3-1.9,0-3.8-0.2c-4.9-1.6-9.6-3.5-14.6-4.8c-23.2-5.9-46.8-8.6-70.6-9.9
	c-48-2.6-95.6,0.6-142.5,11.2c-23.9,5.4-47.4,12.1-67.6,28.5C1114.4,1727.4,1114.1,1727.9,1114,1728.3z"/>
<path class="st2" d="M976.4,1453.2c5.9-23.9,11.6-47.3,17.3-70.7c1.3-5.4,4.1-7,9.6-6.3c2.6,0.3,5.1,0.7,7.7,0.7
	c63.9,0,127.9,0.1,191.8,0c14.6,0,27.5,3.9,39.2,12.9c10.4,7.9,18,17.5,20.7,30.2c2.2,10.2,3.2,20.8,0.7,31.3c-1.1,4.6-1,9.5-2.4,14
	c-5.1,16.6-14.9,30.2-29.1,40.3c-6.9,4.9-14.2,9.2-21.5,13.9c0,0,0.2,0.7,0.6,0.9c8.3,3.6,14.3,10.2,20.3,16.4
	c7.8,7.9,12.6,17.7,12.7,29.2c0,1.2-0.1,2.5,0.3,3.5c2.6,7,2.4,14,0.1,21c-0.5,1.5-0.4,3.1-0.5,4.7c-0.8,23.3-10.3,42.7-27.6,57.9
	c-9.8,8.6-21.3,14.8-34.1,18.7c-8.3,2.5-16.5,5.3-25.1,6.7c-4.1,0.6-8.2,1.3-12.3,1.8c-5.1,0.6-10.3,1-15.4,1.4
	c-4.6,0.4-9.1,1-13.7,1c-58.9,0.1-117.8,0-176.8,0.1c-3.8,0-7.6,0.4-11.4,0.3c-4.2,0-6.2-2-6.1-6.2c0.1-2.6,0.6-5.2,1.2-7.7
	c9.6-38.7,19.2-77.4,28.8-116.1C959.9,1519.8,968.1,1486.7,976.4,1453.2 M1239.2,1565.6c-1.8-8.3-4-16.2-10.2-22.8
	c-4.8-5-9.2-10.3-15-14.3c-7.3-5-15.4-8.2-24.1-10.6c2.1-0.8,4.2-1,6.2-1.4c15.3-3.3,28.5-10.6,39.8-21.3
	c8.9-8.4,15.5-18.5,19.5-30.1c1.7-5.2,1.7-10.9,3.2-16.2c2.5-8.6,1.1-17.1-0.5-25.4c-2.8-14.5-11.6-25.7-24.2-33
	c-9.2-5.4-19.4-8.8-30.5-8.7c-58.3,0.1-116.6,0.1-175,0.1c-9.4,0-18.8,0-29,0c-24.3,98.3-48.6,196.9-73.1,295.8c3.9,0,6.9,0,9.8,0
	c58.9,0,117.8,0,176.8,0c4.8,0,9.5-0.6,14.3-1c4.3-0.4,8.7-0.8,13-1.4c6.9-0.9,13.7-1.9,20.5-2.9c6.9-1,13-4.3,19.6-6.2
	c18.8-5.4,34-15.8,45.2-31.9c8.9-12.8,13.3-27.2,13.7-42.7c0.1-1.9,1-3.8,1.1-5.7c0.3-3.9,0.4-7.8,0.3-11.7
	C1240.5,1571.5,1239.7,1569.1,1239.2,1565.6z"/>
<path class="st2" d="M674.8,1467.9c6.9-28.6,13.8-56.6,20.6-84.7c1.2-4.9,2.8-6.4,7.8-6.4c29.7,0,59.3,0,89,0c5.5,0,7.4,1.7,6.7,7.3
	c-0.7,5.7-2.2,11.3-3.6,16.9c-12.4,50.1-24.8,100.2-37.3,150.3c-3.5,14.3-7.1,28.5-10.9,43.7c2.6,0,4.7,0,6.9,0
	c50.7,0,101.4,0,152.1,0c1.2,0,2.4,0,3.6,0c4.2,0.1,6.3,1.9,6.7,6c0.2,2.3,0,4.8-0.5,7.1c-5.4,22.5-10.9,44.9-16.4,67.3
	c-1.5,6.2-2.6,7-9,7c-85.6,0-171.2,0-256.8,0c-7.1,0-8.9-1.3-8.3-8.3c0.7-7.3,2.5-14.5,4.2-21.6c13.3-54.4,26.6-108.8,39.9-163.2
	C671.3,1482.4,673,1475.4,674.8,1467.9 M793.8,1382.4c-1.6-0.2-3.1-0.6-4.7-0.6c-27.9,0-55.7,0-83.6,0c-1.3,0-2.7,0.3-4.3,0.4
	c-2.5,10.4-5,20.7-7.5,31c-13.3,54.3-26.6,108.7-39.9,163c-7.6,31.1-15.2,62.1-22.8,93.2c-0.7,2.7-1.3,5.4,0.6,7.9
	c87.3,0,174.4,0,261.4,0c0.4-0.6,0.8-0.9,0.8-1.2c5.9-23.6,11.7-47.3,17.5-70.9c0.4-1.6-0.3-3.4-0.5-5.4c-56.8,0-113.1,0-169.7,0
	c0.6-3.3,1-6.3,1.7-9.1c11.2-45,22.4-90,33.5-135C782.2,1431.6,788.1,1407.5,793.8,1382.4z"/>
<path class="st3" d="M1126.4,1707c-3.3,2.2-7.1,4.4-10.8,6.5c-7.1,4.1-13.7,8.8-19.4,14.7c-1.2,1.3-2.7,2.2-4.5,3.5
	c-6.7,0.5-13.1,0.7-19.4,1c-5,0.2-10,0.5-15,0.6c-27.8,0.3-55.6,0.7-83.5,0.8c-11,0-22-0.4-32.9-1.2c-17.3-1.2-34.5-2.7-51.8-4.3
	c-16-1.5-32.1-3.1-48.1-5.1c-12-1.5-23.9-3.8-35.9-5.7c-4.9-0.8-9.9-1.3-14.8-2.2c-16.2-3-32.5-6.1-48.7-9.2
	c-5.3-1-10.5-2.3-15.7-3.6c-0.6-0.2-1.2-0.7-1.5-1.7c7.3,0.8,14.7,1.7,22,2.5c13.2,1.5,26.5,3.1,39.7,4.5
	c11.1,1.2,22.1,2.4,33.2,3.4c7.9,0.7,15.9,0.9,23.9,1.5c13.5,1,27,2.2,40.5,3.1c5.6,0.4,11.2,0.4,16.8,0.5
	c27.6,0.3,55.2,0.7,82.9,0.7c13,0,26-0.6,38.9-1.2c11.2-0.5,22.3-1.1,33.4-2c13.7-1.1,27.4-2.3,41-3.7c8.3-0.8,16.5-2.1,24.8-3.2
	C1123.1,1707,1124.5,1707,1126.4,1707z"/>
<path class="st3" d="M453.2,1588.1c-6.1-12.8-8.3-25.8-5.4-39.3c3.9-18.5,15.3-32.1,29.3-43.9c18.9-15.8,40.7-26.4,63.4-35.7
	c14.6-5.9,29.5-10.8,44.5-15.5c8.2-2.6,16.5-4.4,24.8-6.6c8.1-2.1,16.2-4.1,24.3-6c1.3-0.3,2.8-0.3,4.7-0.5
	c-1.7,4.3-3.7,7.2-8.3,8.5c-14,3.8-28.1,7.6-41.9,12.2c-23,7.5-45.3,16.6-66.2,29c-16.6,9.8-31.9,21.1-43.7,36.7
	c-9.4,12.4-14,26.3-13.3,41.9c0.4,8.2,1.2,16.1,4.5,23.9c4.9,11.5,12.2,20.9,21.4,29.1c9.3,8.2,19.1,15.6,30.1,21.5
	c0.4,0.2,0.4,1,1.2,2.7c-6.3-3.3-11.8-5.8-16.9-9c-11.9-7.3-23.7-14.9-34-24.4C464.3,1605.6,457.8,1597.8,453.2,1588.1z"/>
<path class="st4" d="M1115.3,1726.6c19.5-16,43-22.7,66.9-28.1c46.9-10.6,94.5-13.8,142.5-11.2c23.8,1.3,47.4,4,70.6,9.9
	c4.9,1.3,9.7,3.2,15.3,5.1c3.1,1.5,5.6,2.4,7.8,3.8c3.5,2.2,7.3,4.4,10.2,7.3c5.7,5.6,6.1,12.1,1,18.3c-2.4,2.9-5.3,5.5-8.3,7.7
	c-8.6,6.4-18.3,10.6-28.3,14.3c-38.4,14-78.4,19.5-118.9,21.3c-27,1.2-54,0.2-80.9-3.3c-17.1-2.3-34-5.4-50.4-11
	c-8-2.7-15.8-5.9-22.5-11.1c-8.4-6.5-9.6-10.6-6.3-20.6c0.1-0.2,0-0.4-0.1-0.6c0,0,0,0.1,0.4,0
	C1114.9,1727.6,1115.1,1727.1,1115.3,1726.6 M1370.4,1704.2c0,0-0.2,0-0.7-0.5c-7.3-4.4-15.5-6.1-23.6-8.2
	c-18.6-4.8-37.5-5.9-56.6-6c-25.8-0.1-51.2,3.2-76.2,9c-11.1,2.6-22,6-32.7,9.8c-4.6,1.6-8.9,4.7-12.6,7.9
	c-4.2,3.6-4.1,8.3,1.1,12.6c2.6,2.1,5.6,4.1,8.7,5.2c8.3,2.7,16.8,5.6,25.4,7.2c22.3,4.1,44.9,5,67.6,4c25.3-1.1,50.1-5.2,74.1-13.4
	c6.8-2.3,13.3-5.4,19.9-8.1c-1.1-0.8-1.8-0.7-2.5-0.4c-11,4.8-22.4,8.1-34.3,10.2c-34.9,6.1-70,8.4-105.3,5.4
	c-11.9-1-23.8-3.4-35.5-5.8c-5.2-1.1-10.2-3.5-15-5.9c-5-2.5-5.4-6.1-1.4-10c2.1-2.1,4.6-4.1,7.3-5.2c7.9-3.3,15.9-6.7,24.1-9
	c19-5.4,38.6-7.4,58.2-8.1c26.4-0.9,52.8-1.8,79.1,1.8C1350.1,1698.2,1360.4,1700.1,1370.4,1704.2z"/>
<path class="st3" d="M1113.5,1728.2c0.4,0.3,0.5,0.5,0.5,0.7c-3.3,10-2.1,14.1,6.3,20.6c6.7,5.2,14.6,8.4,22.5,11.1
	c16.4,5.6,33.3,8.7,50.4,11c26.9,3.5,53.9,4.5,80.9,3.3c40.6-1.8,80.5-7.3,118.9-21.3c10-3.7,19.7-7.9,28.3-14.3
	c3-2.2,5.9-4.8,8.3-7.7c5-6.2,4.7-12.7-1-18.3c-3-2.9-6.7-5-10.2-7.3c-2.2-1.4-4.7-2.3-7.3-3.7c0.7-0.3,1.7-0.6,2.6-0.3
	c9.3,3.1,18.4,6.9,26.4,12.8c0.2,0.1,0.3,0.2,0.5,0.4c12.7,9.7,13.8,20.7,2.9,32.7c-8.2,9-18.4,15.4-29.1,20.9
	c-22.1,11.3-45.6,18.3-69.9,23.1c-23.6,4.7-47.5,7.4-71.5,7.3c-17.6,0-35.3-0.1-52.8-1.4c-28-2.1-55.6-6.8-82.1-16.3
	c-9.1-3.3-18-6.9-25.8-12.6c-4.4-3.3-8.4-7.3-11.9-11.7c-4-5-3.6-10.8-0.3-16.3C1103.3,1735.6,1107.8,1731.4,1113.5,1728.2z"/>
<path class="st3" d="M1114.9,1726.8c0.2,0.3,0,0.8-0.6,1.4C1114.1,1727.9,1114.4,1727.4,1114.9,1726.8z"/>
<path class="st5" d="M1239.2,1566.1c0.5,3,1.3,5.5,1.4,8c0.2,3.9,0,7.8-0.3,11.7c-0.1,1.9-1,3.8-1.1,5.7
	c-0.4,15.6-4.8,29.9-13.7,42.7c-11.2,16.1-26.4,26.4-45.2,31.9c-6.6,1.9-12.7,5.2-19.6,6.2c-6.8,1-13.7,2-20.5,2.9
	c-4.3,0.6-8.7,1-13,1.4c-4.8,0.4-9.5,1-14.3,1c-58.9,0.1-117.8,0-176.8,0c-3,0-5.9,0-9.8,0c24.5-99,48.8-197.5,73.1-295.8
	c10.2,0,19.6,0,29,0c58.3,0,116.6,0.1,175-0.1c11.1,0,21.3,3.4,30.5,8.7c12.6,7.4,21.4,18.5,24.2,33c1.6,8.3,3,16.8,0.5,25.4
	c-1.5,5.3-1.5,11-3.2,16.2c-3.9,11.6-10.6,21.7-19.5,30.1c-11.3,10.7-24.5,18-39.8,21.3c-2,0.4-4.1,0.6-6.2,1.4
	c8.7,2.4,16.7,5.5,24.1,10.6c5.8,4,10.2,9.2,15,14.3C1235.2,1549.3,1237.5,1557.2,1239.2,1566.1 M1169.8,1454.5
	c-4-5.2-9.3-6.6-15.8-6.5c-23.6,0.3-47.3,0.1-70.9,0.1c-2.4,0-4.8,0-7.1,0c-4.1,7.7-4.8,16-6.7,24c-1.9,7.9-3.8,15.7-5.8,24.3
	c3,0,5.2,0,7.4,0c23.8,0,47.7-0.4,71.5,0.2c11.4,0.3,19.4-5.2,25.2-13.3C1173.3,1475.1,1175.4,1465.2,1169.8,1454.5 M1109.8,1552.4
	c-20.2,0-40.4,0-60.5,0c-4.5,18.2-8.8,35.8-13.3,54.2c2.5,0,4.6,0,6.7,0c22.3,0,44.5,0,66.8,0c12,0,22.9-2.5,32.9-9.8
	c8.3-6.1,12.9-13.5,12.8-23.8c-0.1-8.4-4.3-15.2-12.3-17.8c-5-1.6-10.4-2.4-15.7-2.8C1121.8,1552.1,1116.4,1552.4,1109.8,1552.4z"/>
<path class="st5" d="M793.9,1382.9c-5.8,24.6-11.7,48.6-17.7,72.7c-11.2,45-22.4,90-33.5,135c-0.7,2.9-1.1,5.8-1.7,9.1
	c56.6,0,112.9,0,169.7,0c0.2,2,0.9,3.8,0.5,5.4c-5.7,23.7-11.6,47.3-17.5,70.9c-0.1,0.4-0.4,0.6-0.8,1.2c-87,0-174.1,0-261.4,0
	c-1.9-2.5-1.2-5.2-0.6-7.9c7.6-31.1,15.2-62.1,22.8-93.2c13.3-54.3,26.6-108.7,39.9-163c2.5-10.3,5-20.5,7.5-31
	c1.6-0.2,3-0.4,4.3-0.4c27.9,0,55.7,0,83.6,0C790.7,1381.8,792.2,1382.2,793.9,1382.9z"/>
<path class="st3" d="M1370.2,1704.2c-9.9-4.1-20.1-6.1-30.7-7.5c-26.4-3.6-52.7-2.7-79.1-1.8c-19.6,0.7-39.2,2.6-58.2,8.1
	c-8.2,2.4-16.2,5.7-24.1,9c-2.7,1.1-5.2,3.1-7.3,5.2c-4,4-3.6,7.5,1.4,10c4.8,2.4,9.8,4.9,15,5.9c11.7,2.4,23.6,4.8,35.5,5.8
	c35.3,3,70.4,0.6,105.3-5.4c11.9-2.1,23.3-5.4,34.3-10.2c0.7-0.3,1.4-0.5,2.5,0.4c-6.6,2.7-13.2,5.8-19.9,8.1
	c-24,8.2-48.8,12.3-74.1,13.4c-22.7,1-45.3,0.1-67.6-4c-8.6-1.6-17-4.4-25.4-7.2c-3.1-1-6.2-3-8.7-5.2c-5.2-4.3-5.3-9-1.1-12.6
	c3.7-3.2,8-6.3,12.6-7.9c10.7-3.8,21.7-7.3,32.7-9.8c25-5.8,50.5-9.2,76.2-9c19,0.1,37.9,1.2,56.6,6c8.2,2.1,16.3,3.7,23.9,8.4
	C1370.2,1704.3,1370.2,1704.2,1370.2,1704.2z"/>
<path class="st3" d="M1370.2,1704.3C1370.2,1704.3,1370.4,1704.2,1370.2,1704.3C1370.2,1704.2,1370.2,1704.3,1370.2,1704.3z"/>
<path class="st2" d="M1170.1,1454.9c5.3,10.3,3.2,20.2-2.6,28.4c-5.8,8.1-13.8,13.6-25.2,13.3c-23.8-0.6-47.7-0.2-71.5-0.2
	c-2.2,0-4.3,0-7.4,0c2-8.5,3.9-16.4,5.8-24.3c1.9-8,2.6-16.3,6.7-24c2.4,0,4.8,0,7.1,0c23.6,0,47.3,0.2,70.9-0.1
	C1160.5,1448,1165.7,1449.3,1170.1,1454.9 M1081.6,1453.1c-2.7,0-3.1,1.8-3.5,3.9c-1.4,6.5-3,13-4.4,19.5c-1.1,4.9-2.1,9.7-3.2,15.1
	c2.5,0,4.3,0,6,0c21.6,0,43.2-0.4,64.8,0.2c10.2,0.3,23.5-8.8,25.7-21.5c2.1-11.8-4.3-17.4-14.1-17.2
	C1129.6,1453.5,1106.1,1453.1,1081.6,1453.1z"/>
<path class="st2" d="M1110.4,1552.4c6,0,11.5-0.4,16.8,0.1c5.3,0.5,10.7,1.2,15.7,2.8c7.9,2.5,12.2,9.3,12.3,17.8
	c0.1,10.3-4.5,17.7-12.8,23.8c-10,7.3-20.9,9.8-32.9,9.8c-22.3-0.1-44.5,0-66.8,0c-2.1,0-4.3,0-6.7,0c4.5-18.5,8.9-36.1,13.3-54.2
	C1069.4,1552.4,1089.6,1552.4,1110.4,1552.4 M1094.1,1601.8c3.6,0,7.2-0.2,10.8,0c8.2,0.5,16.3-0.5,23.9-3.7
	c8.2-3.5,15.9-7.9,19.7-16.9c3.7-8.8,2-14.8-5.9-20c-2.2-1.4-3.9-3.5-6.3-5.7c-26.7,0-54.3,0-82.2,0c-3.7,15.3-7.4,30.6-11.2,46.3
	C1060.1,1601.8,1076.5,1601.8,1094.1,1601.8z"/>
<path class="st0" d="M1082.2,1453.1c23.9,0,47.4,0.4,70.8-0.2c9.8-0.2,16.2,5.4,14.1,17.2c-2.2,12.7-15.5,21.8-25.7,21.5
	c-21.6-0.6-43.2-0.2-64.8-0.2c-1.8,0-3.6,0-6,0c1.1-5.3,2.2-10.2,3.2-15.1c1.4-6.5,3-13,4.4-19.5
	C1078.6,1454.9,1079,1453,1082.2,1453.1z"/>
<path class="st0" d="M1093.5,1601.8c-17,0-33.4,0-50.6,0c3.8-15.7,7.5-30.9,11.2-46.3c28,0,55.6,0,82.2,0c2.4,2.2,4.1,4.3,6.3,5.7
	c7.9,5.2,9.6,11.2,5.9,20c-3.8,8.9-11.4,13.4-19.7,16.9c-7.5,3.2-15.6,4.2-23.9,3.7C1101.3,1601.6,1097.7,1601.8,1093.5,1601.8z"/>
<rect x="1.2" y="1879.9" class="st6" width="1920" height="246.9"/>
<text transform="matrix(1 0 0 1 496.2865 1970.2438)" class="st5 st7 st8">ULTIMATE CLUB</text>
<rect x="1434.1" y="2217.3" class="st6" width="4.7" height="4.7"/>
</svg>
